<svg width="180" height="41" viewBox="0 0 180 41" fill="none" xmlns="http://www.w3.org/2000/svg">
<g clip-path="url(#clip0_4013_4295)">
<path fill-rule="evenodd" clip-rule="evenodd" d="M21.6274 40.9663C33.0523 40.2823 41.269 30.7976 40.9529 19.8327C40.4769 7.9758 30.6321 -0.456853 19.5753 0.0191837C8.04239 0.543224 -0.646286 10.296 0.0377668 21.8369C0.669816 32.9577 10.4626 41.6504 21.6274 40.9663ZM29.368 23.209C28.316 28.3734 25.3117 32.0097 20.4153 34.2738C20.5393 34.2738 20.6074 34.2898 20.6634 34.3058C20.7034 34.3178 20.7394 34.3258 20.7834 34.3258C28.84 34.3258 35.2645 26.9493 34.2124 18.8326C33.3683 12.2441 27.9479 7.07973 21.5234 6.7117C14.0989 6.29167 7.83437 11.3481 6.77829 18.8326C6.41026 21.4688 6.83029 23.945 8.67443 25.9452C10.9906 28.4734 13.8868 29.3694 17.2031 28.3174C20.5714 27.2653 22.4675 24.7851 22.8915 21.3088C22.9435 20.5728 23.2076 20.5168 23.7876 20.5168H27.1559C28.98 20.5168 29.7174 21.4128 29.368 23.205V23.209Z" fill="url(#paint0_linear_4013_4295)"/>
<path d="M63.4279 30.7361C60.3759 30.7361 57.8479 29.7361 55.8999 27.7321C53.9519 25.7281 52.8999 23.2521 52.8999 20.3041C52.8999 17.3561 53.8999 14.8761 55.8999 12.8761C57.8999 10.8721 60.3759 9.87207 63.4279 9.87207C65.2719 9.87207 66.9559 10.2921 68.4839 11.1881C70.0119 12.0841 71.2199 13.2441 72.1159 14.7721L69.7999 16.1441C69.2199 15.0361 68.3799 14.1401 67.2199 13.4561C66.0599 12.7721 64.7999 12.4561 63.4279 12.4561C61.1119 12.4561 59.2159 13.1921 57.7399 14.7201C56.2639 16.1961 55.5279 18.0921 55.5279 20.3041C55.5279 22.5161 56.2639 24.4161 57.7399 25.8881C59.2159 27.3641 61.1079 28.1521 63.4279 28.1521C64.7959 28.1521 66.0599 27.8361 67.2199 27.1521C68.3799 26.4681 69.2199 25.6241 69.7999 24.5161L72.1159 25.8321C71.2719 27.3081 70.0639 28.5201 68.5359 29.4161C66.9559 30.3121 65.2719 30.7321 63.4279 30.7321V30.7361Z" fill="white"/>
<path d="M74.96 30.3678V9.34375H77.488V30.3678H74.96Z" fill="white"/>
<path d="M93.3881 28.5763C91.9121 30.0523 90.1241 30.7883 88.0161 30.7883C85.9081 30.7883 84.1201 30.0523 82.6441 28.5763C81.1681 27.1003 80.4321 25.3083 80.4321 23.2003C80.4321 21.0923 81.1681 19.3003 82.6441 17.8243C84.1201 16.3483 85.9081 15.6123 88.0161 15.6123C90.1241 15.6123 91.9121 16.3483 93.3881 17.8243C94.8641 19.3003 95.6001 21.0923 95.6001 23.2003C95.6521 25.3083 94.9161 27.1003 93.3881 28.5763ZM88.0161 28.3123C89.4361 28.3123 90.6481 27.8363 91.6481 26.8363C92.6481 25.8363 93.1241 24.6243 93.1241 23.2003C93.1241 21.7763 92.6521 20.5123 91.6481 19.5643C90.6481 18.5643 89.4361 18.0883 88.0161 18.0883C86.5961 18.0883 85.3841 18.5643 84.4361 19.5643C83.4881 20.5643 82.9601 21.7763 82.9601 23.2003C82.9601 24.6243 83.4321 25.8883 84.4361 26.8363C85.4361 27.7843 86.5961 28.3123 88.0161 28.3123Z" fill="white"/>
<path d="M108.5 15.9844H111.028V30.3684H108.5V28.3124C107.5 29.9444 105.92 30.7364 103.868 30.7364C102.184 30.7364 100.816 30.2084 99.8122 29.1564C98.8122 28.1044 98.2842 26.6284 98.2842 24.8364V15.9844H100.812V24.6804C100.812 25.8404 101.128 26.7364 101.76 27.4204C102.392 28.0524 103.288 28.3684 104.392 28.3684C105.656 28.3684 106.656 28.0004 107.392 27.2084C108.184 26.4164 108.552 25.2604 108.552 23.6244V15.9844H108.5Z" fill="white"/>
<path d="M126.716 10.2403H129.244V30.3683H126.716V27.8923C125.452 29.7883 123.664 30.7363 121.292 30.7363C119.292 30.7363 117.556 30.0003 116.132 28.5243C114.712 27.0483 114.024 25.2563 114.024 23.1483C114.024 21.0403 114.708 19.2483 116.132 17.7723C117.552 16.2963 119.292 15.5603 121.292 15.5603C123.664 15.5603 125.504 16.5083 126.716 18.4043V10.2363V10.2403ZM121.608 28.3123C123.08 28.3123 124.292 27.8363 125.24 26.8363C126.24 25.8363 126.716 24.6243 126.716 23.1483C126.716 21.6723 126.24 20.4603 125.24 19.4603C124.24 18.4603 123.028 17.9843 121.608 17.9843C120.188 17.9843 118.976 18.4603 117.976 19.4603C116.976 20.4603 116.504 21.6723 116.504 23.1483C116.504 24.6243 116.976 25.8363 117.976 26.8363C118.924 27.8363 120.136 28.3123 121.608 28.3123Z" fill="white"/>
<path d="M144.936 15.9836H147.464V30.3676H144.936V27.8916C143.672 29.7876 141.884 30.7356 139.512 30.7356C137.512 30.7356 135.772 29.9996 134.352 28.5236C132.932 27.0476 132.244 25.2556 132.244 23.1476C132.244 21.0396 132.928 19.2476 134.352 17.7716C135.772 16.2956 137.512 15.5596 139.512 15.5596C141.88 15.5596 143.724 16.5076 144.936 18.4036V15.9796V15.9836ZM139.776 28.3156C141.248 28.3156 142.46 27.8396 143.408 26.8396C144.408 25.8396 144.88 24.6276 144.88 23.1516C144.88 21.6756 144.408 20.4636 143.408 19.4636C142.408 18.4636 141.196 17.9876 139.776 17.9876C138.356 17.9876 137.144 18.4636 136.144 19.4636C135.144 20.4636 134.672 21.6756 134.672 23.1516C134.672 24.6276 135.144 25.8396 136.144 26.8396C137.144 27.8396 138.356 28.3156 139.776 28.3156Z" fill="white"/>
<path d="M152.464 13.3477C151.992 13.3477 151.568 13.1877 151.252 12.8717C150.936 12.5557 150.78 12.1357 150.78 11.7117C150.78 11.2877 150.94 10.8677 151.252 10.4997C151.568 10.1837 151.988 9.97168 152.464 9.97168C152.94 9.97168 153.308 10.1277 153.624 10.4997C153.94 10.8157 154.096 11.2357 154.096 11.7117C154.096 12.1877 153.936 12.5557 153.624 12.8717C153.308 13.1877 152.94 13.3477 152.464 13.3477ZM151.2 30.3677V15.9837H153.728V30.3677H151.2Z" fill="white"/>
<path d="M160.044 18.4077C160.884 16.6157 162.36 15.7197 164.52 15.7197V18.3557C163.308 18.3037 162.256 18.6197 161.36 19.3557C160.464 20.0397 160.044 21.1997 160.044 22.7797V30.4197H157.516V15.9797H160.044V18.4037V18.4077Z" fill="white"/>
<path d="M177.316 15.9845H180L174.156 31.2645C173.524 32.8965 172.68 34.1645 171.576 35.0045C170.468 35.8485 169.204 36.2165 167.784 36.1645V33.8445C169.52 34.0045 170.836 33.0005 171.68 30.8925L171.944 30.3645L165.68 16.0325H168.364L173.26 27.3085L177.316 15.9805V15.9845Z" fill="white"/>
</g>
<defs>
<linearGradient id="paint0_linear_4013_4295" x1="41.717" y1="30.2655" x2="3.73405" y2="12.8002" gradientUnits="userSpaceOnUse">
<stop stop-color="#7630FF"/>
<stop offset="1" stop-color="#3EDDFA"/>
</linearGradient>
<clipPath id="clip0_4013_4295">
<rect width="180" height="41" fill="white"/>
</clipPath>
</defs>
</svg>
